<?xml version="1.0" standalone="no"?>
<!DOCTYPE svg PUBLIC "-//W3C//DTD SVG 20010904//EN"
 "http://www.w3.org/TR/2001/REC-SVG-20010904/DTD/svg10.dtd">
<svg version="1.0" xmlns="http://www.w3.org/2000/svg"
 width="300.000000pt" height="300.000000pt" viewBox="0 0 300.000000 300.000000"
 preserveAspectRatio="xMidYMid meet">
<metadata>
Created by potrace 1.11, written by Peter Selinger 2001-2013
</metadata>
<g transform="translate(0.000000,300.000000) scale(0.100000,-0.100000)"
fill="#000000" stroke="none">
<path d="M1370 2942 c0 -7 39 -35 50 -37 5 -1 31 -13 213 -100 32 -15 56 -29
55 -30 -2 -2 -47 -25 -100 -52 l-97 -49 -78 34 c-43 18 -94 39 -113 46 -19 8
-56 23 -82 36 -26 12 -55 20 -65 18 -10 -2 20 -19 72 -41 50 -21 99 -42 110
-48 11 -5 47 -20 79 -33 56 -22 58 -24 37 -35 -12 -7 -42 -18 -65 -25 -39 -12
-49 -11 -92 6 -81 33 -87 35 -149 59 -33 13 -64 26 -70 30 -18 11 -65 20 -65
11 0 -5 44 -25 98 -46 53 -21 109 -44 125 -52 15 -8 27 -13 27 -9 0 3 14 -1
30 -10 17 -9 30 -19 30 -24 0 -4 -27 -20 -60 -35 l-60 -28 -117 42 c-65 22
-127 45 -138 49 -65 27 -78 31 -94 31 -21 0 -33 -22 -25 -44 3 -8 20 -20 37
-26 18 -7 46 -18 62 -25 17 -7 48 -18 70 -25 22 -7 56 -20 75 -28 l35 -14 -65
-30 -65 -30 -95 31 c-52 17 -143 47 -203 66 -124 40 -118 39 -111 20 4 -8 14
-15 23 -15 9 0 55 -13 101 -29 47 -15 124 -40 172 -55 65 -21 87 -33 91 -48 5
-17 12 -20 44 -15 28 3 77 -8 191 -45 l153 -50 -5 -41 c-2 -23 -5 -53 -5 -67
-1 -19 -9 -29 -32 -37 -27 -11 -31 -16 -27 -42 4 -26 0 -32 -25 -42 -154 -64
-312 -247 -373 -434 -34 -101 -42 -274 -19 -375 47 -204 179 -330 375 -356 68
-10 182 -11 210 -4 l25 7 2 -176 2 -176 -45 -23 c-40 -20 -47 -21 -72 -9 -46
24 -111 20 -154 -8 -86 -57 -108 -211 -42 -286 12 -14 12 -21 0 -50 -16 -39
-26 -120 -19 -149 5 -17 14 -20 64 -20 33 0 59 3 60 8 0 4 2 25 5 46 7 67 27
70 22 4 l-4 -58 343 0 c267 0 343 3 344 13 1 6 2 26 3 44 0 17 5 35 9 40 5 4
8 3 6 -2 -1 -6 2 -29 6 -52 l8 -43 72 0 72 0 -4 38 c-5 49 -21 99 -44 140 -19
33 -19 33 3 75 29 57 33 139 8 191 -23 50 -36 65 -77 94 -47 33 -146 34 -182
3 -21 -19 -22 -19 -61 0 -22 11 -54 22 -70 26 -17 3 -30 11 -31 17 0 6 -2 20
-5 31 -12 53 -24 292 -17 313 3 6 10 12 15 12 12 0 100 41 108 51 3 3 21 15
41 27 78 47 166 163 196 260 17 54 24 189 12 242 -4 19 -10 50 -14 68 -23 133
-137 334 -238 419 -70 59 -167 104 -239 110 -37 4 -58 10 -58 18 0 7 -13 18
-30 24 -16 5 -31 14 -31 18 -8 58 -7 78 3 85 10 6 10 10 -1 17 -9 6 -16 28
-17 51 -2 40 -1 41 25 35 14 -4 40 -12 56 -19 71 -31 81 -33 103 -25 19 7 22
14 16 31 -9 30 1 25 -105 62 l-94 34 -5 51 c-4 35 -2 52 7 55 12 5 99 -24 178
-60 22 -9 47 -19 55 -20 13 -3 44 -16 82 -35 24 -12 48 -11 48 1 0 6 -7 10
-15 10 -8 0 -24 5 -35 10 -11 6 -29 15 -40 20 -12 6 -25 8 -30 5 -4 -3 -10 -1
-12 3 -1 5 -48 26 -103 47 -55 21 -104 41 -109 46 -4 4 10 17 32 28 22 11 42
17 46 14 3 -4 6 -1 6 5 0 11 45 -3 144 -47 23 -10 48 -21 56 -24 8 -3 52 -21
98 -41 47 -20 82 -31 80 -23 -3 6 -76 42 -163 78 -88 37 -160 71 -162 75 -2 8
172 94 190 94 5 0 46 -18 90 -39 127 -61 279 -131 284 -131 2 0 1 5 -3 11 -4
6 -59 36 -123 66 -205 96 -236 113 -236 126 0 6 -18 14 -40 18 -32 4 -281 112
-320 139 -18 12 -45 20 -45 12z m-495 -342 c3 -6 -1 -7 -9 -4 -18 7 -21 14 -7
14 6 0 13 -4 16 -10z m90 -30 c13 -6 15 -9 5 -9 -8 0 -22 4 -30 9 -18 12 -2
12 25 0z m80 -30 c13 -6 15 -9 5 -9 -8 0 -22 4 -30 9 -18 12 -2 12 25 0z m55
-20 c8 -5 11 -10 5 -10 -5 0 -17 5 -25 10 -8 5 -10 10 -5 10 6 0 17 -5 25 -10z
m246 -18 c1 -25 -3 -26 -42 -12 -26 10 -26 11 -8 25 26 20 49 14 50 -13z m-73
-72 l67 -22 0 -49 c0 -27 -2 -49 -5 -49 -4 0 -207 67 -265 87 -18 7 98 62 120
58 8 -2 45 -13 83 -25z m247 -40 c8 -5 11 -10 5 -10 -5 0 -17 5 -25 10 -8 5
-10 10 -5 10 6 0 17 -5 25 -10z m47 -16 c-3 -3 -12 -4 -19 -1 -8 3 -5 6 6 6
11 1 17 -2 13 -5z m10 -30 c-3 -3 -12 -4 -19 -1 -8 3 -5 6 6 6 11 1 17 -2 13
-5z"/>
</g>
</svg>
